<svg id="visual" viewBox="0 0 900 600" width="900" height="600" xmlns="http://www.w3.org/2000/svg" xmlns:xlink="http://www.w3.org/1999/xlink" version="1.1"><rect width="900" height="600" fill="#000000"></rect><g><g transform="translate(520 92)"><path d="M0 -71.4L61.9 -35.7L61.9 35.7L0 71.4L-61.9 35.7L-61.9 -35.7Z" fill="none" stroke="#6b02fd" stroke-width="2"></path></g><g transform="translate(802 316)"><path d="M0 -42L36.4 -21L36.4 21L0 42L-36.4 21L-36.4 -21Z" fill="none" stroke="#6b02fd" stroke-width="2"></path></g><g transform="translate(574 499)"><path d="M0 -29L25.1 -14.5L25.1 14.5L0 29L-25.1 14.5L-25.1 -14.5Z" stroke="#6b02fd" fill="none" stroke-width="2"></path></g><g transform="translate(335 442)"><path d="M0 -36L31.2 -18L31.2 18L0 36L-31.2 18L-31.2 -18Z" stroke="#6b02fd" fill="none" stroke-width="2"></path></g><g transform="translate(629 366)"><path d="M0 -61L52.8 -30.5L52.8 30.5L0 61L-52.8 30.5L-52.8 -30.5Z" stroke="#6b02fd" fill="none" stroke-width="2"></path></g><g transform="translate(96 597)"><path d="M0 -22L19.1 -11L19.1 11L0 22L-19.1 11L-19.1 -11Z" stroke="#6b02fd" fill="none" stroke-width="2"></path></g><g transform="translate(802 526)"><path d="M0 -29L25.1 -14.5L25.1 14.5L0 29L-25.1 14.5L-25.1 -14.5Z" stroke="#6b02fd" fill="none" stroke-width="2"></path></g><g transform="translate(29 128)"><path d="M0 -36L31.2 -18L31.2 18L0 36L-31.2 18L-31.2 -18Z" stroke="#6b02fd" fill="none" stroke-width="2"></path></g><g transform="translate(722 185)"><path d="M0 -16L13.9 -8L13.9 8L0 16L-13.9 8L-13.9 -8Z" stroke="#6b02fd" fill="none" stroke-width="2"></path></g><g transform="translate(64 393)"><path d="M0 -53L45.9 -26.5L45.9 26.5L0 53L-45.9 26.5L-45.9 -26.5Z" stroke="#6b02fd" fill="none" stroke-width="2"></path></g><g transform="translate(210 23)"><path d="M0 -30L26 -15L26 15L0 30L-26 15L-26 -15Z" stroke="#6b02fd" fill="none" stroke-width="2"></path></g><g transform="translate(880 92)"><path d="M0 -26L22.5 -13L22.5 13L0 26L-22.5 13L-22.5 -13Z" stroke="#6b02fd" fill="none" stroke-width="2"></path></g><g transform="translate(679 19)"><path d="M0 -66L57.2 -33L57.2 33L0 66L-57.2 33L-57.2 -33Z" stroke="#6b02fd" fill="none" stroke-width="2"></path></g><g transform="translate(354 181)"><path d="M0 -10L8.7 -5L8.7 5L0 10L-8.7 5L-8.7 -5Z" stroke="#6b02fd" fill="none" stroke-width="2"></path></g><g transform="translate(374 33)"><path d="M0 -29L25.1 -14.5L25.1 14.5L0 29L-25.1 14.5L-25.1 -14.5Z" stroke="#6b02fd" fill="none" stroke-width="2"></path></g><g transform="translate(421 309)"><path d="M0 -18L15.6 -9L15.6 9L0 18L-15.6 9L-15.6 -9Z" stroke="#6b02fd" fill="none" stroke-width="2"></path></g><g transform="translate(197 327)"><path d="M0 -17L14.7 -8.5L14.7 8.5L0 17L-14.7 8.5L-14.7 -8.5Z" stroke="#6b02fd" fill="none" stroke-width="2"></path></g><g transform="translate(282 582)"><path d="M0 -16L13.9 -8L13.9 8L0 16L-13.9 8L-13.9 -8Z" stroke="#6b02fd" fill="none" stroke-width="2"></path></g><g transform="translate(181 176)"><path d="M0 -57L49.4 -28.5L49.4 28.5L0 57L-49.4 28.5L-49.4 -28.5Z" stroke="#6b02fd" fill="none" stroke-width="2"></path></g><g transform="translate(558 240)"><path d="M0 -69L59.8 -34.5L59.8 34.5L0 69L-59.8 34.5L-59.8 -34.5Z" stroke="#6b02fd" fill="none" stroke-width="2"></path></g><g transform="translate(437 557)"><path d="M0 -39L33.8 -19.5L33.8 19.5L0 39L-33.8 19.5L-33.8 -19.5Z" stroke="#6b02fd" fill="none" stroke-width="2"></path></g></g></svg>